<?xml version="1.0" encoding="utf-8"?>
<!-- Generator: Adobe Illustrator 27.6.1, SVG Export Plug-In . SVG Version: 6.00 Build 0)  -->
<svg version="1.1" id="Capa_1" xmlns="http://www.w3.org/2000/svg" xmlns:xlink="http://www.w3.org/1999/xlink" x="0px" y="0px"
	 viewBox="0 0 95 95" style="enable-background:new 0 0 95 95;" xml:space="preserve">
<style type="text/css">
	.st0{fill:none;}
	.st1{opacity:0.2;}
</style>
<g>
	<g>
		<path class="st0" d="M90.2,10.4h-9.6H14.4H4.8c-1,0-1.8,0.8-1.8,1.8v9.5v61c0,1,0.8,1.8,1.8,1.8h85.4c1,0,1.8-0.8,1.8-1.8v-61
			v-9.5C92,11.2,91.2,10.4,90.2,10.4z"/>
		<path d="M90.2,7.4h-9.6H14.4H4.8C2.1,7.4,0,9.6,0,12.2v9.5v61c0,2.7,2.2,4.8,4.8,4.8h85.4c2.6,0,4.8-2.1,4.8-4.8v-61v-9.5
			C95,9.6,92.9,7.4,90.2,7.4z M92,82.7c0,1-0.8,1.8-1.8,1.8H4.8c-1,0-1.8-0.8-1.8-1.8v-61v-9.5c0-1,0.8-1.8,1.8-1.8h9.6h66.2h9.6
			c1,0,1.8,0.8,1.8,1.8v9.5V82.7z"/>
	</g>
	<g>
		<g>
			<g class="st1">
				<path d="M45.228,59.313H9.096c-0.537,0-0.806-0.403-0.806-0.806v-8.782c0-0.537,0.403-0.806,0.806-0.806h36.132
					c0.537,0,0.806,0.403,0.806,0.806v8.782C46.168,58.91,45.765,59.313,45.228,59.313z"/>
			</g>
		</g>
		<g>
			<path d="M85.878,45.981H9.096c-0.537,0-0.806-0.403-0.806-0.806v-8.782c0-0.537,0.403-0.806,0.806-0.806h76.782
				c0.537,0,0.806,0.403,0.806,0.806v8.782C86.818,45.578,86.415,45.981,85.878,45.981z"/>
		</g>
	</g>
</g>
</svg>
